<svg width="18" height="29" viewBox="0 0 18 29" fill="none" xmlns="http://www.w3.org/2000/svg">
<path d="M9 0C3.85922 0 0 1.79126 0 4.16505V24.7864C0 27.1602 3.85922 28.9515 9 28.9515C14.1408 28.9515 18 27.1602 18 24.7864V4.16505C18 1.79126 14.1262 0 9 0ZM16.5437 24.7864C16.5437 25.9223 13.6748 27.4951 9 27.4951C4.32524 27.4951 1.45631 25.9223 1.45631 24.7864V20.2427C3.7395 21.5735 6.36064 22.2111 9 22.0777C11.6392 22.2091 14.2597 21.5716 16.5437 20.2427V24.7864ZM16.5437 17.9126C16.5437 19.0485 13.6748 20.6214 9 20.6214C4.32524 20.6214 1.45631 19.0485 1.45631 17.9126V13.3689C3.7395 14.6997 6.36064 15.3373 9 15.2039C11.6392 15.3353 14.2597 14.6979 16.5437 13.3689V17.9126ZM16.5437 11.0388C16.5437 12.1748 13.6748 13.7476 9 13.7476C4.32524 13.7476 1.45631 12.1748 1.45631 11.0388V6.49515C3.7395 7.82596 6.36064 8.46354 9 8.3301C11.6392 8.46151 14.2597 7.82408 16.5437 6.49515V11.0388ZM9 6.87379C4.32524 6.87379 1.45631 5.30097 1.45631 4.16505C1.45631 3.02913 4.32524 1.45631 9 1.45631C13.6748 1.45631 16.5437 3.02913 16.5437 4.16505C16.5437 5.30097 13.6748 6.87379 9 6.87379Z" fill="#212121"/>
</svg>
