<svg width="25" height="25" viewBox="0 0 25 25" fill="none" xmlns="http://www.w3.org/2000/svg">
<path d="M15.8232 0.457722C15.1626 0.263836 14.4841 0.1374 13.798 0.0803546C12.28 -0.0981796 10.7417 0.0214628 9.26959 0.432564L9.18154 0.457722C6.54224 1.18245 4.21411 2.75418 2.55522 4.93116C0.896339 7.10814 -0.00142754 9.76982 1.70387e-06 12.5068C0.00143095 15.2438 0.901977 17.9045 2.56313 20.0798C4.22429 22.255 6.55406 23.8243 9.19412 24.5463C10.1606 24.8186 11.1587 24.9624 12.1627 24.974C12.2747 24.9944 12.3886 25.0029 12.5024 24.9992C13.6207 25.0013 14.734 24.8489 15.8106 24.5463C18.4484 23.8218 20.7755 22.2516 22.4345 20.0766C24.0936 17.9017 24.9928 15.2423 24.9943 12.5068C24.9957 9.77134 24.0992 7.11101 22.4424 4.93433C20.7857 2.75765 18.4602 1.18495 15.8232 0.457722ZM15.4836 1.6653C17.1122 2.11614 18.6183 2.92811 19.8901 4.04091C21.1619 5.15371 22.1666 6.53873 22.8296 8.09311H17.471C16.8314 5.62356 15.6546 3.32564 14.0244 1.3634C14.5174 1.42896 15.005 1.52985 15.4836 1.6653ZM12.5024 1.55209C14.2209 3.41354 15.4751 5.6548 16.1628 8.09311H8.81675C9.50154 5.64891 10.7658 3.40596 12.5024 1.5546V1.55209ZM16.4773 9.351C16.8798 11.4324 16.8798 13.5716 16.4773 15.653H8.52744C8.31454 14.6184 8.20915 13.5646 8.21297 12.5083C8.20978 11.4479 8.31516 10.39 8.52744 9.351H16.4773ZM9.43312 1.69045L9.52117 1.6653C10.0008 1.5375 10.4882 1.44086 10.9803 1.37598C9.34136 3.33039 8.15953 5.62614 7.52113 8.09563H2.18138C2.84177 6.5585 3.83462 5.18684 5.08852 4.07932C6.34242 2.9718 7.8262 2.15594 9.43312 1.69045ZM1.25683 12.5083C1.25704 11.4388 1.41384 10.3751 1.72225 9.351H7.24439C7.05288 10.3926 6.95604 11.4493 6.95507 12.5083C6.95546 13.5632 7.0523 14.6158 7.24439 15.653H1.72225C1.41294 14.6335 1.2561 13.5738 1.25683 12.5083ZM9.52117 23.3387C7.89084 22.8915 6.38296 22.0809 5.11069 20.9676C3.83841 19.8544 2.83478 18.4675 2.17509 16.9109H7.50855C8.15357 19.3859 9.34409 21.6853 10.9929 23.6406C10.4956 23.5764 10.0037 23.4755 9.52117 23.3387ZM8.81675 16.9109H16.1628C15.4833 19.3563 14.2282 21.6035 12.5024 23.4645C10.7766 21.5995 9.51403 19.3544 8.81675 16.9109ZM15.4836 23.3387C14.9985 23.4647 14.5073 23.5654 14.0118 23.6406C15.6457 21.6791 16.8269 19.3812 17.471 16.9109H22.8296C22.1681 18.4663 21.1638 19.8521 19.8918 20.9651C18.6199 22.0781 17.113 22.8895 15.4836 23.3387ZM17.7478 15.653C18.1377 13.5705 18.1377 11.4336 17.7478 9.351H23.2699C23.5844 10.3737 23.7413 11.4383 23.7353 12.5083C23.7384 13.573 23.5858 14.6324 23.2825 15.653H17.7478Z" fill="#212121"/>
</svg>
