<svg width="24" height="24" viewBox="0 0 24 24" fill="none" xmlns="http://www.w3.org/2000/svg">
<path d="M22.6454 10.3541V1.33349C22.6451 1.094 22.58 0.859042 22.4572 0.65347C22.3343 0.447897 22.1582 0.279349 21.9474 0.16565C21.7263 0.0427152 21.4745 -0.0138108 21.2221 0.00285673C20.9697 0.0195243 20.7275 0.108677 20.5245 0.259615L19.3566 1.21268C16.9579 3.19875 14.168 4.65773 11.1683 5.49477L10.5509 5.66928H3.35587C2.4666 5.67175 1.61446 6.02611 0.98565 6.65493C0.35684 7.28374 0.00247955 8.13587 0 9.02514V14.9583C0.00250747 15.595 0.185427 16.2179 0.52755 16.7549C0.869672 17.2918 1.35698 17.7208 1.93298 17.992V21.1868C1.93298 21.9273 2.22715 22.6375 2.75076 23.1611C3.27438 23.6847 3.98456 23.9789 4.72506 23.9789C5.46557 23.9789 6.17575 23.6847 6.69936 23.1611C7.22298 22.6375 7.51715 21.9273 7.51715 21.1868V18.3142H10.5911L11.1549 18.4753C14.1598 19.3093 16.9547 20.7685 19.3566 22.7574L20.5916 23.7641C20.8018 23.9055 21.0497 23.9803 21.3031 23.9789C21.4797 23.9801 21.6548 23.9463 21.8182 23.8793C21.9816 23.8122 22.1301 23.7134 22.255 23.5885C22.3799 23.4636 22.4788 23.3151 22.5458 23.1517C22.6128 22.9883 22.6467 22.8132 22.6454 22.6365V13.616C23.026 13.5449 23.3698 13.3429 23.6172 13.0451C23.8646 12.7472 24 12.3722 24 11.985C24 11.5978 23.8646 11.2228 23.6172 10.925C23.3698 10.6271 23.026 10.4251 22.6454 10.3541ZM6.1748 21.1868C6.1748 21.5713 6.02206 21.9401 5.75018 22.2119C5.4783 22.4838 5.10956 22.6365 4.72506 22.6365C4.34057 22.6365 3.97182 22.4838 3.69995 22.2119C3.42807 21.9401 3.27533 21.5713 3.27533 21.1868V18.3142H6.1748V21.1868ZM9.98706 16.9718H3.35587C2.82304 16.968 2.31314 16.7546 1.93637 16.3778C1.55959 16.001 1.34621 15.4911 1.34235 14.9583V9.02514C1.34235 8.49113 1.55449 7.97898 1.93209 7.60137C2.3097 7.22376 2.82185 7.01162 3.35587 7.01162H9.98706V16.9718ZM20.2023 21.7238C17.6619 19.6095 14.7017 18.0585 11.5173 17.1732L11.3294 17.1195V6.83712L11.5308 6.78342C14.7101 5.90249 17.6659 4.35595 20.2023 2.24629L21.3031 1.33349L21.3702 22.6902L20.2023 21.7238Z" fill="#212121"/>
</svg>
