<svg width="28" height="28" viewBox="0 0 28 28" fill="none" xmlns="http://www.w3.org/2000/svg">
<path d="M14 28C11.2311 28 8.52431 27.1789 6.22202 25.6406C3.91973 24.1022 2.12532 21.9157 1.06569 19.3576C0.00606603 16.7994 -0.271181 13.9845 0.269012 11.2687C0.809205 8.55301 2.14258 6.05845 4.10051 4.10051C6.05845 2.14258 8.55301 0.809205 11.2687 0.269012C13.9845 -0.271181 16.7994 0.00606603 19.3576 1.06569C21.9157 2.12532 24.1022 3.91973 25.6406 6.22202C27.1789 8.52431 28 11.2311 28 14C27.9959 17.7118 26.5196 21.2703 23.895 23.895C21.2703 26.5196 17.7118 27.9959 14 28ZM14 1.40817C11.5096 1.40817 9.07507 2.14667 7.00436 3.53028C4.93364 4.91389 3.31971 6.88046 2.36667 9.18132C1.41362 11.4822 1.16426 14.014 1.65012 16.4565C2.13598 18.8991 3.33524 21.1428 5.09623 22.9038C6.85723 24.6648 9.10088 25.864 11.5435 26.3499C13.986 26.8357 16.5178 26.5864 18.8187 25.6333C21.1195 24.6803 23.0861 23.0664 24.4697 20.9956C25.8533 18.9249 26.5918 16.4904 26.5918 14C26.5881 10.6616 25.2603 7.46097 22.8997 5.10035C20.539 2.73973 17.3384 1.4119 14 1.40817Z" fill="#212121"/>
<path d="M20.6085 16.4558C20.0878 17.7847 19.1786 18.9257 17.9996 19.73C16.8206 20.5343 15.4265 20.9645 13.9993 20.9645C12.5721 20.9645 11.178 20.5343 9.99899 19.73C8.81998 18.9257 7.91079 17.7847 7.39007 16.4558C7.03943 15.625 5.82559 16.3418 6.17482 17.167C6.82147 18.7087 7.90916 20.0251 9.30133 20.9509C10.6935 21.8766 12.3281 22.3705 14 22.3705C15.6719 22.3705 17.3065 21.8766 18.6987 20.9509C20.0908 20.0251 21.1785 18.7087 21.8252 17.167C22.173 16.3418 20.9606 15.618 20.6085 16.4558Z" fill="#212121"/>
<path d="M9.7755 11.5512C10.7476 11.5512 11.5357 10.7631 11.5357 9.79099C11.5357 8.81885 10.7476 8.03078 9.7755 8.03078C8.80337 8.03078 8.01529 8.81885 8.01529 9.79099C8.01529 10.7631 8.80337 11.5512 9.7755 11.5512Z" fill="#212121"/>
<path d="M18.2245 11.5512C19.1966 11.5512 19.9847 10.7631 19.9847 9.79099C19.9847 8.81885 19.1966 8.03078 18.2245 8.03078C17.2524 8.03078 16.4643 8.81885 16.4643 9.79099C16.4643 10.7631 17.2524 11.5512 18.2245 11.5512Z" fill="#212121"/>
</svg>
