<svg width="20" height="32" viewBox="0 0 20 32" fill="none" xmlns="http://www.w3.org/2000/svg">
<path d="M9.97757 0C8.06504 0.00296812 6.2317 0.764032 4.87933 2.1164C3.52697 3.46876 2.76591 5.30211 2.76294 7.21463V16.4494C2.76294 18.3628 3.52305 20.1979 4.87605 21.5509C6.22906 22.9039 8.06413 23.664 9.97757 23.664C11.891 23.664 13.7261 22.9039 15.0791 21.5509C16.4321 20.1979 17.1922 18.3628 17.1922 16.4494V7.21463C17.1892 5.30211 16.4282 3.46876 15.0758 2.1164C13.7234 0.764032 11.8901 0.00296812 9.97757 0ZM9.97757 22.0607C8.48934 22.0607 7.06206 21.4695 6.00972 20.4172C4.95739 19.3649 4.36619 17.9376 4.36619 16.4494V7.21463C4.37608 5.81974 4.90517 4.47854 5.85027 3.45257C6.79537 2.4266 8.08872 1.78943 9.47811 1.66531C10.8675 1.54118 12.2533 1.939 13.3653 2.7812C14.4773 3.62339 15.2358 4.84957 15.4928 6.22062H12.4947C12.2821 6.22062 12.0782 6.30507 11.9278 6.45541C11.7775 6.60574 11.6931 6.80964 11.6931 7.02224C11.6931 7.23485 11.7775 7.43875 11.9278 7.58908C12.0782 7.73941 12.2821 7.82387 12.4947 7.82387H15.589V11.0304H12.4947C12.2821 11.0304 12.0782 11.1148 11.9278 11.2652C11.7775 11.4155 11.6931 11.6194 11.6931 11.832C11.6964 12.0436 11.7819 12.2456 11.9315 12.3952C12.0811 12.5448 12.2831 12.6303 12.4947 12.6336H15.589V15.8401H12.4786C12.2671 15.8434 12.0651 15.929 11.9155 16.0786C11.7658 16.2282 11.6803 16.4302 11.677 16.6418C11.6831 16.8524 11.7695 17.0528 11.9185 17.2019C12.0676 17.3509 12.268 17.4373 12.4786 17.4434H15.4928C15.2623 18.7383 14.5832 19.9106 13.5748 20.7549C12.5663 21.5992 11.2928 22.0615 9.97757 22.0607Z" fill="#212121"/>
<path d="M10.7792 27.0308V30.2534H16.3906C16.6032 30.2534 16.8071 30.3378 16.9574 30.4882C17.1077 30.6385 17.1922 30.8424 17.1922 31.055C17.1922 31.2676 17.1077 31.4715 16.9574 31.6218C16.8071 31.7722 16.6032 31.8566 16.3906 31.8566H3.56456C3.35196 31.8566 3.14806 31.7722 2.99773 31.6218C2.84739 31.4715 2.76294 31.2676 2.76294 31.055C2.76294 30.8424 2.84739 30.6385 2.99773 30.4882C3.14806 30.3378 3.35196 30.2534 3.56456 30.2534H9.17595V27.0629C7.61954 26.9525 6.11267 26.4685 4.78303 25.652C3.3724 24.7765 2.19972 23.5662 1.36907 22.1286C0.538425 20.6911 0.075499 19.0707 0.0213767 17.4113C-0.0267209 15.7439 0.0213767 14.0605 0.0213767 12.3931C0.0213767 12.1805 0.105834 11.9766 0.256168 11.8263C0.406502 11.676 0.610398 11.5915 0.823003 11.5915C1.03561 11.5915 1.2395 11.676 1.38984 11.8263C1.54017 11.9766 1.62463 12.1805 1.62463 12.3931C1.62463 14.0605 1.57653 15.7439 1.62463 17.4113C1.69518 19.6112 2.63084 21.6945 4.22839 23.2085C5.82593 24.7226 7.95634 25.5452 10.1569 25.4977C12.3574 25.4502 14.4503 24.5364 15.981 22.9548C17.5117 21.3732 18.3566 19.2515 18.3321 17.0506C18.3482 15.5115 18.3321 13.9563 18.3321 12.4012C18.3321 12.1885 18.4166 11.9847 18.5669 11.8343C18.7172 11.684 18.9211 11.5995 19.1337 11.5995C19.3463 11.5995 19.5502 11.684 19.7006 11.8343C19.8509 11.9847 19.9354 12.1885 19.9354 12.4012C20.0529 14.523 20.0101 16.6507 19.8071 18.7661C19.4309 20.9493 18.34 22.9457 16.706 24.4417C15.0719 25.9377 12.9871 26.8484 10.7792 27.0308Z" fill="#212121"/>
</svg>
