<svg width="28" height="28" viewBox="0 0 28 28" fill="none" xmlns="http://www.w3.org/2000/svg">
<path d="M27.2089 19.4434H20.5751L21.5306 8.47838H27.2168C27.4245 8.47838 27.6237 8.39586 27.7706 8.24898C27.9175 8.1021 28 7.90288 28 7.69516C28 7.48744 27.9175 7.28822 27.7706 7.14134C27.6237 6.99446 27.4245 6.91194 27.2168 6.91194H21.6716L22.2042 0.849845C22.2178 0.642814 22.1501 0.438652 22.0155 0.280713C21.881 0.122775 21.6902 0.0235 21.4836 0.00397044C21.3807 -0.00459466 21.2771 0.00727958 21.1788 0.0389094C21.0805 0.0705392 20.9894 0.1213 20.9108 0.188271C20.8322 0.255241 20.7676 0.337099 20.7207 0.429132C20.6739 0.521166 20.6457 0.621558 20.6378 0.72453L20.0895 6.91194H9.14014L9.67273 0.849845C9.68628 0.642814 9.61861 0.438652 9.48407 0.280713C9.34953 0.122775 9.15872 0.0235 8.95217 0.00397044C8.84888 -0.00656579 8.74452 0.00392067 8.64539 0.0347979C8.54626 0.0656751 8.45441 0.116304 8.37537 0.183633C8.29633 0.250961 8.23175 0.333596 8.1855 0.426556C8.13926 0.519516 8.11231 0.620877 8.10629 0.72453L7.55804 6.91194H0.783217C0.575495 6.91194 0.37628 6.99446 0.229399 7.14134C0.082517 7.28822 0 7.48744 0 7.69516C0 7.90288 0.082517 8.1021 0.229399 8.24898C0.37628 8.39586 0.575495 8.47838 0.783217 8.47838H7.42489L6.45371 19.4434H0.783217C0.575495 19.4434 0.37628 19.5259 0.229399 19.6728C0.082517 19.8197 0 20.0189 0 20.2266C0 20.4344 0.082517 20.6336 0.229399 20.7804C0.37628 20.9273 0.575495 21.0098 0.783217 21.0098H6.32839L5.7958 27.0563C5.78159 27.261 5.84699 27.4632 5.97833 27.6208C6.10967 27.7784 6.29682 27.8792 6.5007 27.9022H6.57902C6.77468 27.8972 6.96192 27.8215 7.10596 27.689C7.25 27.5564 7.34106 27.3762 7.36224 27.1816L7.89482 21.0098H18.8599L18.3273 27.0563C18.3131 27.261 18.3785 27.4632 18.5098 27.6208C18.6411 27.7784 18.8283 27.8792 19.0322 27.9022H19.1105C19.3062 27.8972 19.4934 27.8215 19.6374 27.689C19.7815 27.5564 19.8725 27.3762 19.8937 27.1816L20.4263 21.0098H27.2089C27.4167 21.0098 27.6159 20.9273 27.7628 20.7804C27.9096 20.6336 27.9922 20.4344 27.9922 20.2266C27.9922 20.0189 27.9096 19.8197 27.7628 19.6728C27.6159 19.5259 27.4167 19.4434 27.2089 19.4434ZM18.9852 19.4434H8.04364L8.99916 8.47838H19.9642L18.9852 19.4434Z" fill="#212121"/>
</svg>
